<!--?xml version="1.0" encoding="utf-8"?-->
<!-- Generator: Adobe Illustrator 18.1.1, SVG Export Plug-In . SVG Version: 6.00 Build 0)  -->

<svg version="1.1" id="_x32_" xmlns="http://www.w3.org/2000/svg" xmlns:xlink="http://www.w3.org/1999/xlink" x="0px" y="0px" viewBox="0 0 512 512" style="width: 256px; height: 256px; opacity: 1;" xml:space="preserve">
<style type="text/css">
	.st0{fill:#4B4B4B;}
</style>
<g>
	<path class="st0" d="M165.931,155.138c14.662,0,27.061-17.632,27.061-38.486c0-20.862-12.399-38.494-27.061-38.494
		c-14.662,0-27.061,17.632-27.061,38.494C138.87,137.506,151.269,155.138,165.931,155.138z" style="fill: rgb(58, 171, 210);"></path>
	<path class="st0" d="M256.004,103.46c14.662,0,27.054-17.632,27.054-38.494c0-20.854-12.392-38.486-27.054-38.486
		c-14.669,0-27.061,17.632-27.061,38.486C228.943,85.828,241.335,103.46,256.004,103.46z" style="fill: rgb(58, 171, 210);"></path>
	<path class="st0" d="M346.071,155.138c14.67,0,27.062-17.632,27.062-38.486c0-20.862-12.392-38.494-27.062-38.494
		c-14.662,0-27.061,17.632-27.061,38.494C319.01,137.506,331.409,155.138,346.071,155.138z" style="fill: rgb(58, 171, 210);"></path>
	<path class="st0" d="M280.34,129.94c-1.632,0-2.949,1.317-2.949,2.95v36.917c0,1.633,1.317,2.95,2.949,2.95
		c1.632,0,2.957-1.317,2.957-2.95V132.89C283.297,131.257,281.973,129.94,280.34,129.94z" style="fill: rgb(58, 171, 210);"></path>
	<path class="st0" d="M373.363,181.618c-1.632,0-2.949,1.324-2.949,2.95v29.534c0,1.632,1.317,2.957,2.949,2.957
		c1.633,0,2.956-1.324,2.956-2.957v-29.534C376.319,182.942,374.996,181.618,373.363,181.618z" style="fill: rgb(58, 171, 210);"></path>
	<path class="st0" d="M190.274,181.618c-1.633,0-2.956,1.324-2.956,2.95v29.534c0,1.632,1.324,2.957,2.956,2.957
		c1.632,0,2.949-1.324,2.949-2.957v-29.534C193.223,182.942,191.906,181.618,190.274,181.618z" style="fill: rgb(58, 171, 210);"></path>
	<path class="st0" d="M437.538,318.592c0-0.119,0.014-0.239,0.014-0.358c-0.014-0.896-0.091-1.779-0.169-2.661
		c-0.006-0.078-0.006-0.161-0.014-0.238c-1.696-18.193-17.092-32.337-35.678-32.112c-0.105,0-0.203,0.021-0.308,0.021
		c1.1-7.874-0.49-15.824-4.371-22.585V116.652c-0.014-17.535-5.387-33.506-14.403-45.345c-4.511-5.92-9.954-10.809-16.14-14.248
		c-6.186-3.426-13.128-5.38-20.4-5.38c-7.271,0-14.214,1.954-20.392,5.38c-7.44,4.132-13.773,10.368-18.732,17.968v-10.06
		c-0.014-17.527-5.386-33.499-14.403-45.345c-4.511-5.92-9.962-10.802-16.147-14.242c-6.178-3.432-13.127-5.387-20.392-5.38
		c-7.272-0.007-14.221,1.948-20.4,5.38c-9.282,5.163-16.89,13.555-22.199,23.86c-5.304,10.312-8.344,22.585-8.344,35.727V75.04
		c-0.834-1.275-1.681-2.543-2.592-3.734c-4.511-5.92-9.962-10.809-16.147-14.248c-6.178-3.426-13.121-5.38-20.392-5.38
		c-7.271,0-14.214,1.954-20.392,5.38c-9.29,5.162-16.89,13.562-22.2,23.859c-5.31,10.312-8.35,22.586-8.35,35.734v143.523
		c-4.232,6.991-6.003,15.32-4.784,23.559c-0.182,0-0.358-0.028-0.54-0.021c-19.572,0.119-35.342,16.084-35.223,35.65
		c0.112,18.732,14.739,33.933,33.142,35.11v100.68c-0.006,4.644,1.345,9.149,3.672,13.205c4.112,7.118,10.991,13.058,19.866,18.304
		c13.338,7.825,31.404,14.067,52.742,18.466c21.332,4.385,45.92,6.872,72.113,6.872c39.93-0.007,76.076-5.744,102.746-15.265
		c13.338-4.778,24.336-10.48,32.357-17.247c4.007-3.383,7.286-7.061,9.619-11.131c2.333-4.056,3.678-8.561,3.678-13.205V354.305
		c17.562-1.1,31.628-14.97,33.036-32.449v-0.014c0.078-0.939,0.147-1.892,0.147-2.859
		C437.559,318.851,437.538,318.725,437.538,318.592z M318.926,78.465c3.635-4.77,7.894-8.532,12.483-11.075
		c4.596-2.543,9.499-3.895,14.662-3.902c5.163,0.006,10.067,1.359,14.67,3.902c6.872,3.804,13.022,10.388,17.422,18.942
		c4.406,8.54,7.04,18.999,7.04,30.319c0.007,15.089-4.7,28.651-11.986,38.179c-3.635,4.77-7.888,8.532-12.476,11.075
		c-4.603,2.543-9.506,3.895-14.67,3.902c-5.163-0.006-10.066-1.358-14.662-3.902c-6.879-3.804-13.03-10.388-17.429-18.936
		c-4.407-8.546-7.04-19.005-7.034-30.318C306.933,101.555,311.64,87.993,318.926,78.465z M306.946,158.256
		c0.827,1.275,1.674,2.543,2.585,3.741c4.511,5.912,9.954,10.802,16.147,14.242c6.178,3.432,13.121,5.387,20.392,5.38
		c7.272,0.007,14.214-1.948,20.4-5.38c7.432-4.14,13.765-10.368,18.732-17.969v61.738h-78.256V158.256z M373.363,236.252
		c-1.632,0-2.949,1.317-2.949,2.956v3.965c-8.868-1.037-17.779,1.317-24.925,6.48c-3.398-9.31-10.606-16.994-20.098-20.785h59.811
		v19.503c-1.079-0.673-2.199-1.31-3.369-1.884c-1.808-0.883-3.65-1.548-5.514-2.102v-5.177
		C376.319,237.569,374.996,236.252,373.363,236.252z M308.887,261.401c7.314,0,13.247,5.927,13.247,13.24s-5.933,13.24-13.247,13.24
		c-7.313,0-13.24-5.927-13.24-13.24S301.573,261.401,308.887,261.401z M228.852,26.788c3.642-4.77,7.895-8.532,12.483-11.075
		c4.596-2.543,9.5-3.895,14.669-3.902c5.163,0.006,10.066,1.358,14.662,3.902c6.879,3.804,13.022,10.388,17.429,18.935
		c4.399,8.54,7.04,19.006,7.033,30.319c0.014,15.096-4.694,28.658-11.979,38.186c-3.636,4.771-7.895,8.532-12.484,11.076
		c-4.596,2.543-9.499,3.888-14.662,3.902c-5.17-0.014-10.073-1.359-14.669-3.902c-6.879-3.804-13.023-10.388-17.429-18.942
		c-4.399-8.54-7.033-18.999-7.033-30.319C216.859,49.877,221.567,36.315,228.852,26.788z M216.873,116.652v-10.074
		c0.834,1.274,1.681,2.543,2.584,3.734c4.512,5.92,9.962,10.809,16.147,14.248c6.178,3.432,13.128,5.38,20.4,5.38
		c7.265,0,14.214-1.948,20.392-5.38c7.433-4.14,13.766-10.368,18.732-17.968v10.06v60.539h-78.256V116.652z M138.779,78.465
		c3.642-4.77,7.901-8.532,12.49-11.075c4.596-2.543,9.499-3.895,14.662-3.902c5.163,0.006,10.067,1.359,14.662,3.902
		c6.879,3.804,13.03,10.388,17.429,18.942c4.406,8.54,7.04,18.999,7.04,30.319c0.007,15.089-4.701,28.651-11.986,38.179
		c-3.635,4.77-7.895,8.532-12.483,11.075c-4.596,2.543-9.499,3.895-14.662,3.902c-5.163-0.006-10.066-1.358-14.662-3.902
		c-6.879-3.804-13.03-10.388-17.429-18.936c-4.406-8.546-7.04-19.005-7.04-30.318C126.793,101.555,131.5,87.993,138.779,78.465z
		 M126.8,158.256c0.833,1.275,1.68,2.543,2.592,3.741c4.511,5.912,9.954,10.802,16.147,14.242c6.178,3.432,13.121,5.387,20.392,5.38
		c7.272,0.007,14.214-1.948,20.392-5.38c7.44-4.14,13.772-10.368,18.739-17.969v61.738H126.8V158.256z M126.8,228.868h59.551
		c-9.632,3.769-16.946,11.538-20.365,20.96c-10.284-7.412-24.21-9.058-36.384-3.068c-0.967,0.476-1.892,1.009-2.802,1.562V228.868z
		 M143.024,479.635c-5.892-2.914-10.81-6.01-14.522-9.162c-3.208-2.704-5.528-5.422-6.992-7.986
		c-1.464-2.578-2.108-4.945-2.116-7.334v-38.964c3.348,3.034,7.286,5.828,11.727,8.455c3.622,2.123,7.615,4.12,11.902,6.004V479.635
		z M143.024,417.618c-5.892-2.914-10.81-6.01-14.522-9.162c-3.208-2.704-5.528-5.422-6.992-7.986
		c-1.464-2.578-2.108-4.946-2.116-7.328v-9.709c2.922,3.208,6.459,5.94,10.585,7.958c4.218,2.06,8.638,3.187,13.044,3.503V417.618z
		 M141.097,303.194c0-7.32,5.934-13.247,13.24-13.247c7.321,0,13.247,5.927,13.247,13.247c0,7.313-5.926,13.24-13.247,13.24
		C147.031,316.434,141.097,310.508,141.097,303.194z M191.009,494.48c-12.574-2.353-23.986-5.352-33.8-8.868
		c-1.842-0.658-3.608-1.331-5.331-2.025v-49.394c9.528,3.503,20.238,6.501,31.986,8.924c2.34,0.476,4.729,0.925,7.146,1.36V494.48z
		 M191.009,432.462c-12.574-2.354-23.986-5.352-33.8-8.862c-1.842-0.658-3.608-1.338-5.331-2.032v-27.174
		c5.198-0.952,10.151-3.019,14.459-6.136c3.922,10.76,12.946,19.32,24.672,22.248V432.462z M190.764,371.11
		c0-7.313,5.927-13.24,13.24-13.24c7.314,0,13.247,5.927,13.247,13.24c0,7.314-5.933,13.24-13.247,13.24
		C196.691,384.35,190.764,378.424,190.764,371.11z M251.549,500.147c-18.354-0.196-35.818-1.667-51.678-4.147v-50.052
		c15.999,2.402,33.422,3.79,51.678,3.986V500.147z M251.549,438.129c-18.354-0.196-35.818-1.667-51.678-4.147v-22.396
		c10.192-0.063,19.643-4.532,26.192-11.874c5.499,8.792,14.726,14.977,25.486,16.357V438.129z M218.862,304.175
		c0-7.314,5.934-13.24,13.24-13.24c7.32,0,13.247,5.926,13.247,13.24c0,7.313-5.926,13.24-13.247,13.24
		C224.796,317.415,218.862,311.488,218.862,304.175z M255.724,221.583c-12.672,0.007-23.762,6.69-30.018,16.7
		c-2.549-2.851-5.527-5.289-8.833-7.187v-45.051h78.256v44.701c-3.517,1.934-6.676,4.484-9.359,7.496
		c-0.981-1.562-2.074-3.04-3.272-4.427c0.484-0.525,0.799-1.219,0.799-1.99v-36.917c0-1.632-1.324-2.956-2.957-2.956
		c-1.632,0-2.949,1.324-2.949,2.956v34.087C271.395,224.357,263.892,221.576,255.724,221.583z M312.088,495.993
		c-15.867,2.48-33.317,3.937-51.678,4.147V449.94c18.256-0.196,35.671-1.583,51.678-3.993V495.993z M312.088,433.982
		c-15.867,2.48-33.317,3.937-51.678,4.133v-22.011c10.851-1.33,20.169-7.551,25.71-16.406c6.501,7.278,15.86,11.74,25.968,11.867
		V433.982z M309.426,372.546c0-7.32,5.927-13.246,13.24-13.246c7.314,0,13.24,5.926,13.24,13.246c0,7.314-5.926,13.24-13.24,13.24
		C315.353,385.786,309.426,379.86,309.426,372.546z M360.074,483.58c-9.737,3.902-21.359,7.313-34.361,9.982
		c-1.555,0.315-3.166,0.609-4.763,0.903v-49.989c13.947-2.508,26.69-5.8,37.772-9.759c0.463-0.161,0.897-0.336,1.352-0.512V483.58z
		 M360.074,421.569c-9.737,3.895-21.359,7.307-34.361,9.975c-1.555,0.323-3.166,0.61-4.763,0.911v-21.926
		c11.839-2.887,20.952-11.489,24.889-22.326c4.252,3.061,9.121,5.113,14.235,6.073V421.569z M353.279,306.144
		c0-7.321,5.927-13.247,13.24-13.247c7.314,0,13.247,5.926,13.247,13.247c0,7.313-5.933,13.24-13.247,13.24
		C359.206,319.383,353.279,313.457,353.279,306.144z M392.557,455.152c0,2.389-0.644,4.756-2.108,7.334
		c-2.543,4.491-7.818,9.437-15.608,13.99c-1.821,1.079-3.825,2.123-5.906,3.153v-48.967c8.799-3.867,16.273-8.238,22.143-13.184
		c0.519-0.441,0.988-0.897,1.478-1.345V455.152z M392.557,393.142c0,2.382-0.644,4.749-2.108,7.328
		c-2.543,4.49-7.818,9.436-15.608,13.996c-1.821,1.072-3.825,2.116-5.906,3.152v-22.774c4.483-0.294,8.988-1.436,13.275-3.537
		c4.022-1.976,7.475-4.638,10.347-7.741V393.142z" style="fill: rgb(58, 171, 210);"></path>
</g>
</svg>
